HIERARCHY
ROOT Hips
{
	OFFSET 0.00000 0.00000 0.00000
	CHANNELS 6 Xposition Yposition Zposition Yrotation Zrotation Xrotation 
	JOINT Lumbar
	{
		OFFSET 0 0 0
		CHANNELS 3 Zrotation Xrotation Yrotation
		JOINT Neck
		{
			OFFSET 0.00 0.2701 0.00
			CHANNELS 3 Zrotation Xrotation Yrotation
			End Site
			{
				OFFSET 0.00 0.1379 0.00
			}
		}
		JOINT RightShoulder
		{
			OFFSET 0.0119 0.2289 0.1181
			CHANNELS 3 Zrotation Xrotation Yrotation
			JOINT RightElbow
			{
				OFFSET 0.00 -0.1475 0.00
				CHANNELS 2 Zrotation Yrotation
				JOINT RightWrist
				{
					OFFSET 0.00 -0.1605 0.00
					CHANNELS 2 Zrotation Xrotation
					End Site
					{
						OFFSET 0.0040 -0.1068 0.0006
					}
				}
			}
		}
		JOINT LeftShoulder
		{
			OFFSET 0.0119 0.2289 -0.1181
			CHANNELS 3 Zrotation Xrotation Yrotation
			JOINT LeftElbow
			{
				OFFSET 0.00 -0.1475 0.00
				CHANNELS 2 Zrotation Yrotation
				JOINT LeftWrist
				{
					OFFSET 0.00 -0.1605 0.00
					CHANNELS 2 Zrotation Xrotation
					End Site
					{
						OFFSET 0.0040 -0.1068 -0.0006
					}
				}
			}
		}
	}
	JOINT RightHip
	{
		OFFSET 0.0316 -0.0424 0.0458
		CHANNELS 3 Zrotation Xrotation Yrotation
		JOINT RightKnee
		{
			OFFSET 0.00 -0.2438 0.00
			CHANNELS 1 Zrotation
			JOINT RightAnkle
			{
				OFFSET 0.00 -0.2449 0.00
				CHANNELS 3 Zrotation Xrotation Yrotation
				End Site
				{
					OFFSET 0.1237 -0.0542 0.0051
				}
			}
		}
	}
	JOINT LeftHip
	{
		OFFSET 0.0316 -0.0424 -0.0458
		CHANNELS 3 Zrotation Xrotation Yrotation
		JOINT LeftKnee
		{
			OFFSET 0.00 -0.2438 0.00
			CHANNELS 1 Zrotation
			JOINT LeftAnkle
			{
				OFFSET 0.00 -0.2449 0.00
				CHANNELS 3 Zrotation Xrotation Yrotation
				End Site
				{
					OFFSET 0.1237 -0.0542 -0.0051
				}
			}
		}
	}
}
MOTION
Frames: 14
Frame Time: 0.02
0.00063 2e-05 -0.00026 44.13528 -30.2607 -9.7214 48.72135 1.57883 -6.38892 2.43891 0.98771 -0.1183 -16.06818 -7.2419 -19.81245 26.98416 154.34467 21.15739 10.72668 -21.80008 11.14101 2.78131 44.77609 -134.75125 24.437 -5.72351 41.80091 1.49761 -4.88703 -19.15766 -6.12392 -3.09715 -2.2193 44.77322 0.93859 4.13345 -24.93513 -6.26024 3.0698 2.23738
0.00086 6e-05 -0.00058 44.14476 -30.19368 -9.71462 48.80339 1.58978 -6.31434 2.02554 0.97796 -0.11934 -17.17252 -7.57736 -18.45832 27.15731 148.07893 19.49636 9.78127 -23.34013 10.72725 4.12787 44.64468 -134.98049 24.62977 -5.75023 41.67763 1.49753 -4.86345 -19.15211 -6.12744 -3.10119 -2.2211 44.64852 0.94614 4.17194 -24.92946 -6.26055 3.06718 2.23281
0.00109 0.0001 -0.0009 44.15431 -30.12683 -9.70787 48.88522 1.60069 -6.24001 1.61331 0.9682 -0.12037 -18.27344 -7.91116 -17.11048 27.32998 141.84022 17.84262 8.83989 -24.87593 10.31501 5.46945 44.51358 -135.2088 24.82211 -5.77679 41.55463 1.49737 -4.84043 -19.14657 -6.13095 -3.10517 -2.22288 44.52412 0.95365 4.21025 -24.92381 -6.26085 3.06457 2.22824
0.00132 0.00014 -0.00122 44.16377 -30.06002 -9.70111 48.96702 1.6116 -6.16566 1.20117 0.95848 -0.12141 -19.3744 -8.24543 -15.76104 27.5026 135.59559 16.18721 7.89766 -26.41137 9.90248 6.81195 44.38256 -135.43755 25.01442 -5.80345 41.43171 1.49728 -4.81701 -19.14103 -6.13446 -3.10919 -2.22468 44.39979 0.96117 4.24859 -24.91816 -6.26116 3.06197 2.22368
0.00155 0.00019 -0.00153 44.17314 -29.99306 -9.69433 49.049 1.62253 -6.09105 0.78796 0.94879 -0.12245 -20.47869 -8.58173 -14.40405 27.67569 129.31947 14.5233 6.95074 -27.95069 9.4886 8.15914 44.25129 -135.66658 25.20681 -5.83018 41.30854 1.49732 -4.79283 -19.13548 -6.138 -3.11329 -2.22652 44.27518 0.96876 4.28716 -24.91251 -6.26146 3.05935 2.2191
0.00178 0.00023 -0.00185 44.18305 -29.92644 -9.68763 49.13051 1.6334 -6.01731 0.37783 0.93888 -0.12348 -21.57241 -8.91032 -13.07522 27.84745 123.15882 12.89077 6.02093 -29.47894 9.07994 9.48853 44.12053 -135.89296 25.3989 -5.85631 41.18591 1.49674 -4.77224 -19.12999 -6.14145 -3.11705 -2.22818 44.15124 0.97611 4.32494 -24.90687 -6.26177 3.05676 2.21457
0.00201 0.00027 -0.00217 44.19186 -29.85921 -9.68078 49.21287 1.64439 -5.94191 -0.03809 0.92942 -0.12452 -22.68637 -9.25371 -11.69258 28.02168 116.77722 11.19815 5.05839 -31.02814 8.66064 10.85373 43.98888 -136.12633 25.59211 -5.88392 41.06232 1.49738 -4.74453 -19.12437 -6.14506 -3.12146 -2.23019 44.02608 0.9839 4.36419 -24.90119 -6.26208 3.05413 2.20996
0.00224 0.00031 -0.00249 44.2017 -29.79254 -9.67406 49.29446 1.65527 -5.86802 -0.44858 0.91954 -0.12556 -23.78135 -9.5841 -10.35703 28.19368 110.59094 9.55864 4.12479 -32.55733 8.2522 12.18327 43.85808 -136.34976 25.78294 -5.90964 40.93963 1.49693 -4.7232 -19.11887 -6.14853 -3.1253 -2.23189 43.90206 0.99132 4.40223 -24.89556 -6.26238 3.05152 2.2054
0.00247 0.00035 -0.0028 44.21276 -29.72651 -9.66753 49.37512 1.66602 -5.79605 -0.85298 0.90919 -0.12658 -24.85482 -9.89605 -9.08891 28.36282 104.67571 7.99289 3.23134 -34.06552 7.85274 13.4801 43.72814 -136.57497 25.97633 -5.93512 40.81791 1.495 -4.71048 -19.11351 -6.1518 -3.12836 -2.23315 43.77932 0.99816 4.4382 -24.88997 -6.2627 3.04901 2.20097
0.00271 0.0004 -0.00314 44.21666 -29.65669 -9.65998 49.46116 1.67753 -5.71325 -1.2941 0.90165 -0.12766 -26.05717 -10.30639 -7.46248 28.54804 97.29802 6.0293 2.1212 -35.705 7.38871 14.99786 43.5927 -136.83183 26.17145 -5.9682 40.69022 1.50115 -4.65069 -19.10732 -6.15615 -3.13564 -2.23676 43.64886 1.00793 4.48429 -24.88407 -6.26297 3.04615 2.196
0.00291 0.00044 -0.00343 44.23574 -29.59495 -9.65456 49.53582 1.68741 -5.65316 -1.65661 0.88813 -0.12863 -26.98427 -10.51412 -6.57295 28.69953 92.94343 4.888 1.45905 -37.06066 7.06915 16.02855 43.46923 -136.99516 26.35235 -5.98128 40.57538 1.49053 -4.68859 -19.10289 -6.15824 -3.13418 -2.23551 43.53493 1.01178 4.5102 -24.87886 -6.26333 3.04388 2.19206
0.003 0.00045 -0.00364 44.29655 -29.55482 -9.65534 49.57923 1.693 -5.65706 -1.81064 0.85836 -0.12932 -27.17557 -10.11867 -7.88535 28.75625 97.49233 6.16939 2.11586 -37.68509 7.07717 15.89336 43.3756 -137.13473 26.58633 -5.97387 40.49408 1.43119 -5.0106 -19.10332 -6.15401 -3.10711 -2.22001 43.46495 0.99694 4.4699 -24.87547 -6.26409 3.04463 2.19188
0.00303 0.00045 -0.0038 44.37263 -29.52293 -9.6582 49.61115 1.6969 -5.68353 -1.88417 0.82253 -0.12991 -27.08633 -9.52793 -9.90648 28.77962 104.97277 8.24798 3.20718 -38.01483 7.23948 15.24577 43.29442 -137.14838 26.79282 -5.94173 40.42604 1.3555 -5.42776 -19.10552 -6.14754 -3.07156 -2.19979 43.41188 0.97652 4.41094 -24.87281 -6.26491 3.04576 2.1926
0.00309 0.00046 -0.00398 44.44168 -29.48764 -9.65989 49.64847 1.70148 -5.69846 -1.9901 0.78944 -0.13055 -27.11346 -9.05812 -11.48314 28.81957 110.70386 9.8502 4.03949 -38.4495 7.38064 14.71055 43.20965 -137.05329 26.94684 -5.89621 40.35298 1.28905 -5.79089 -19.10688 -6.14216 -3.04096 -2.18234 43.35191 0.96037 4.36808 -24.86989 -6.26561 3.04578 2.19225
